<?xml version="1.0" standalone="no"?><!DOCTYPE svg PUBLIC "-//W3C//DTD SVG 1.1//EN" "http://www.w3.org/Graphics/SVG/1.1/DTD/svg11.dtd"><svg t="1668937830489" class="icon" viewBox="0 0 1024 1024" version="1.1" xmlns="http://www.w3.org/2000/svg" p-id="1312" xmlns:xlink="http://www.w3.org/1999/xlink" width="200" height="200"><path d="M576.7168 865.0752h110.08c103.168 0 186.7776-83.6096 186.7776-186.7776v-141.4656c0-44.1344-35.7888-79.9232-79.9232-79.9232h-110.08c-103.168 0-186.7776 83.6096-186.7776 186.7776v141.4656c0 44.1344 35.7888 79.9232 79.9232 79.9232z" fill="#FFBE0A" p-id="1313"></path><path d="M721.4592 911.1552H307.712c-108.1344 0-196.1472-88.0128-196.1472-196.1472V301.2608c0-108.1344 88.0128-196.1472 196.1472-196.1472h413.7472c108.1344 0 196.1472 88.0128 196.1472 196.1472v413.7472c0 108.1344-88.0128 196.1472-196.1472 196.1472zM307.712 176.7936c-68.608 0-124.4672 55.808-124.4672 124.4672v413.7472c0 68.608 55.808 124.4672 124.4672 124.4672h413.7472c68.608 0 124.4672-55.808 124.4672-124.4672V301.2608c0-68.608-55.808-124.4672-124.4672-124.4672H307.712z" fill="#34332E" p-id="1314"></path><path d="M303.104 630.4256c-9.3696 0-18.688-3.6352-25.7024-10.8544a35.88096 35.88096 0 0 1 0.7168-50.688l142.4896-138.4448c23.8592-23.1424 62.464-22.9888 86.0672 0.4096l77.9776 77.2608 110.2848-115.8144a35.84 35.84 0 0 1 50.688-1.2288 35.84 35.84 0 0 1 1.2288 50.688l-117.4528 123.392a60.9792 60.9792 0 0 1-43.6224 19.0976c-16.5376 0.1536-32.3072-6.0928-44.1856-17.8176L463.36 488.8576l-135.2704 131.4816a35.9424 35.9424 0 0 1-24.9856 10.0864z" fill="#34332E" p-id="1315"></path></svg>