<?xml version="1.0" standalone="no"?><!DOCTYPE svg PUBLIC "-//W3C//DTD SVG 1.1//EN" "http://www.w3.org/Graphics/SVG/1.1/DTD/svg11.dtd"><svg t="1668938104263" class="icon" viewBox="0 0 1024 1024" version="1.1" xmlns="http://www.w3.org/2000/svg" p-id="5437" xmlns:xlink="http://www.w3.org/1999/xlink" width="200" height="200"><path d="M587.093333 747.52m-153.6 0a153.6 153.6 0 1 0 307.2 0 153.6 153.6 0 1 0-307.2 0Z" fill="#333333" opacity=".3" p-id="5438"></path><path d="M508.586667 462.506667a114.346667 114.346667 0 1 1 0-228.693334 114.346667 114.346667 0 0 1 0 228.693334z m0-179.2c-35.84 0-63.146667 29.013333-63.146667 63.146666s29.013333 63.146667 63.146667 63.146667 63.146667-29.013333 63.146666-63.146667-27.306667-63.146667-63.146666-63.146666zM148.48 267.946667C85.333333 267.946667 34.133333 216.746667 34.133333 151.893333s51.2-114.346667 114.346667-114.346666 114.346667 51.2 114.346667 114.346666-49.493333 116.053333-114.346667 116.053334z m0-179.2C114.346667 88.746667 85.333333 117.76 85.333333 151.893333s29.013333 63.146667 63.146667 63.146667 63.146667-29.013333 63.146667-63.146667-27.306667-63.146667-63.146667-63.146666zM875.52 354.986667a114.346667 114.346667 0 1 1 0-228.693334 114.346667 114.346667 0 0 1 0 228.693334z m0-177.493334c-35.84 0-63.146667 29.013333-63.146667 63.146667s29.013333 63.146667 63.146667 63.146667 63.146667-29.013333 63.146667-63.146667-29.013333-63.146667-63.146667-63.146667zM148.48 894.293333a114.346667 114.346667 0 1 1 114.346667-114.346666c0 63.146667-49.493333 114.346667-114.346667 114.346666z m0-179.2c-35.84 0-63.146667 29.013333-63.146667 63.146667s29.013333 63.146667 63.146667 63.146667 63.146667-29.013333 63.146667-63.146667-27.306667-63.146667-63.146667-63.146667zM875.52 986.453333a114.346667 114.346667 0 1 1 0-228.693333 114.346667 114.346667 0 0 1 0 228.693333z m0-179.2c-35.84 0-63.146667 29.013333-63.146667 63.146667s29.013333 63.146667 63.146667 63.146667S938.666667 904.533333 938.666667 870.4s-29.013333-63.146667-63.146667-63.146667zM508.586667 798.72a114.346667 114.346667 0 1 1 0-228.693333 114.346667 114.346667 0 0 1 0 228.693333z m0-179.2c-35.84 0-63.146667 29.013333-63.146667 63.146667s29.013333 63.146667 63.146667 63.146666 63.146667-29.013333 63.146666-63.146666-27.306667-63.146667-63.146666-63.146667z" fill="#333333" p-id="5439"></path><path d="M157.047467 254.378667l41.250133-30.3104 272.7936 371.370666-41.250133 30.3104zM554.9056 412.859733l41.949867-29.354666 272.093866 388.676266-41.9328 29.354667z" fill="#333333" p-id="5440"></path><path d="M185.412267 686.4896l236.2368-302.7456 40.362666 31.505067L225.774933 717.994667zM552.277333 599.0912L829.166933 301.909333l37.461334 34.901334-276.855467 297.198933z" fill="#333333" p-id="5441"></path></svg>